<svg width="24" height="24" viewBox="0 0 24 24" fill="none" xmlns="http://www.w3.org/2000/svg">
<path fill-rule="evenodd" clip-rule="evenodd" d="M2.5 6.5C2.5 4.01472 4.51472 2 7 2C9.48528 2 11.5 4.01472 11.5 6.5C11.5 7.99535 10.7706 9.32034 9.64824 10.1386C9.97872 10.2404 10.3048 10.3616 10.6246 10.5024L11.2082 10.7592C11.5024 10.8886 11.7684 11.0617 12 11.2689C12.2316 11.0617 12.4976 10.8886 12.7918 10.7592L13.3754 10.5024C13.6952 10.3616 14.0213 10.2404 14.3518 10.1386C13.2294 9.32034 12.5 7.99535 12.5 6.5C12.5 4.01472 14.5147 2 17 2C19.4853 2 21.5 4.01472 21.5 6.5C21.5 7.99535 20.7706 9.32034 19.6482 10.1386C19.9787 10.2404 20.3048 10.3616 20.6246 10.5024L21.2082 10.7592C22.2971 11.2383 23 12.3155 23 13.5051V19.0001C23 20.6569 21.6569 22.0001 20 22.0001H14C13.2316 22.0001 12.5308 21.7112 12 21.2362C11.4692 21.7112 10.7684 22.0001 10 22.0001H4C2.34315 22.0001 1 20.6569 1 19.0001V13.5051C1 12.3155 1.70291 11.2383 2.79178 10.7592L3.37535 10.5024C3.69524 10.3616 4.02128 10.2404 4.35176 10.1386C3.22937 9.32034 2.5 7.99535 2.5 6.5ZM7 4C5.61929 4 4.5 5.11929 4.5 6.5C4.5 7.88071 5.61929 9 7 9C8.38071 9 9.5 7.88071 9.5 6.5C9.5 5.11929 8.38071 4 7 4ZM13 13.5051V19.0001C13 19.5524 13.4477 20.0001 14 20.0001H20C20.5523 20.0001 21 19.5524 21 19.0001V13.5051C21 13.1086 20.7657 12.7495 20.4027 12.5898L19.8192 12.333C18.0228 11.5426 15.9772 11.5426 14.1808 12.333L13.5973 12.5898C13.2343 12.7495 13 13.1086 13 13.5051ZM11 19.0001V13.5051C11 13.1086 10.7657 12.7495 10.4027 12.5898L9.81917 12.333C8.02282 11.5426 5.97718 11.5426 4.18083 12.333L3.59726 12.5898C3.2343 12.7495 3 13.1086 3 13.5051V19.0001C3 19.5524 3.44772 20.0001 4 20.0001H10C10.5523 20.0001 11 19.5524 11 19.0001ZM14.5 6.5C14.5 5.11929 15.6193 4 17 4C18.3807 4 19.5 5.11929 19.5 6.5C19.5 7.88071 18.3807 9 17 9C15.6193 9 14.5 7.88071 14.5 6.5Z" fill="#1F2328"/>
</svg>
