<svg width="24" height="24" viewBox="0 0 24 24" fill="none" xmlns="http://www.w3.org/2000/svg">
<path class="user-fill-right" d="M11 20V13.5969C11 12.7578 11.5237 12.008 12.3115 11.7191L14.246 11.0098C16.0241 10.3578 17.9759 10.3578 19.754 11.0098L21.6885 11.7191C22.4763 12.008 23 12.7578 23 13.5969V20C23 21.1046 22.1046 22 21 22H13C11.8954 22 11 21.1046 11 20Z" fill="currentFill"/>
<path d="M1 13.5969V20C1 21.1046 1.89543 22 3 22H11C9.89543 22 9 21.1046 9 20V13.5969C9 12.7578 9.52372 12.008 10.3115 11.7191L11 11.4667L9.75403 11.0098C7.97589 10.3578 6.02411 10.3578 4.24596 11.0098L2.31149 11.7191C1.52372 12.008 1 12.7578 1 13.5969Z" fill="currentFill"/>
<path d="M10.5 5.5C10.5 7.433 8.933 9 7 9C5.067 9 3.5 7.433 3.5 5.5C3.5 3.567 5.067 2 7 2C8.933 2 10.5 3.567 10.5 5.5Z" fill="currentFill"/>
<path class="user-fill-right" d="M20.5 5.5C20.5 7.433 18.933 9 17 9C15.067 9 13.5 7.433 13.5 5.5C13.5 3.567 15.067 2 17 2C18.933 2 20.5 3.567 20.5 5.5Z" fill="currentFill"/>
</svg>
